<?xml version="1.0" standalone="no"?>
<!DOCTYPE svg PUBLIC "-//W3C//DTD SVG 20010904//EN"
 "http://www.w3.org/TR/2001/REC-SVG-20010904/DTD/svg10.dtd">
<svg version="1.0" xmlns="http://www.w3.org/2000/svg"
 width="960.000000pt" height="803.000000pt" viewBox="0 0 960.000000 803.000000"
 preserveAspectRatio="xMidYMid meet">

<g transform="translate(0.000000,803.000000) scale(0.100000,-0.100000)"
fill="#000000" stroke="none">
<path d="M5635 6537 l-1249 -1257 -1066 0 -1065 0 -1008 -1008 c-554 -554
-1007 -1010 -1007 -1015 0 -4 556 -7 1235 -7 l1235 0 0 -1257 0 -1258 1258
1258 1257 1257 1060 0 1060 0 1015 1015 1015 1015 -1242 0 -1243 0 -2 1257 -3
1256 -1250 -1256z m745 -612 l0 -645 -647 0 -648 0 645 645 c355 355 646 645
647 645 2 0 3 -290 3 -645z m-3010 -1660 l-505 -505 -705 0 -705 0 505 505
505 505 705 0 705 0 -505 -505z m2135 0 l-510 -505 -703 0 c-387 0 -702 4
-700 8 2 5 230 232 507 505 l505 497 705 -1 706 0 -510 -504z m2135 0 l-505
-505 -705 0 -705 0 505 505 505 505 705 0 705 0 -505 -505z m-3770 -1640
l-645 -645 -3 632 c-1 347 1 634 4 637 3 3 229 8 502 11 273 4 562 7 642 8
l145 2 -645 -645z"/>
<path d="M6810 990 l0 -750 440 0 440 0 0 120 0 120 -290 0 -290 0 0 630 0
630 -150 0 -150 0 0 -750z"/>
<path d="M8218 1733 l-278 -3 0 -745 0 -745 155 0 155 0 0 275 0 275 133 0
c72 0 150 -5 172 -11 69 -19 93 -57 196 -308 l94 -231 182 0 182 0 -51 108
c-183 389 -239 496 -279 534 -23 22 -40 40 -38 41 2 1 26 13 52 26 151 76 217
253 173 462 -34 161 -133 259 -306 304 -75 19 -175 23 -542 18z m410 -272 c94
-42 140 -123 128 -224 -9 -78 -42 -127 -110 -162 -58 -29 -63 -30 -228 -33
l-168 -4 0 227 0 227 163 -4 c142 -4 169 -7 215 -27z"/>
<path d="M5220 985 l0 -747 333 4 c320 4 335 6 431 31 150 40 237 87 326 176
85 85 127 160 162 288 29 108 32 351 5 468 -60 261 -218 418 -493 492 -96 25
-111 27 -431 31 l-333 4 0 -747z m611 499 c87 -26 149 -62 210 -123 98 -98
149 -230 149 -383 0 -154 -54 -283 -159 -380 -105 -96 -199 -128 -383 -128
l-128 0 0 515 0 515 128 0 c89 0 145 -5 183 -16z"/>
</g>
</svg>
